# xmcd
#
# Track frame offsets:
#	150
#	14044
#	26696
#	41284
#	53990
#	66548
#	78498
#	87568
#	98098
#	110311
#	121094
#	131647
#	142254
#	153178
#	164826
#	178034
#	189492
#	199071
#	209962
#	219711
#	229992
#	243295
#	261117
#	271315
#	284211
#	296094
#
# Disc length: 4127 seconds
#
# Revision: 0
# Processed by: cddbd v1.5.2PL0 Copyright (c) Steve Scherf et al.
# Submitted via: audiograbber 1.83.01
#
DISCID=a2101d1a
DTITLE=Various Artist - 101 Northern Soul Anthems - Disc 4
DYEAR=2009
DGENRE=Northern Soul
TTITLE0=Doni Burdick - Bari Track
TTITLE1=World Column - So Is The Sun
TTITLE2=Mitch Ryder and The Detroit Wheels - breakout
TTITLE3=The Bob and Earl Band - My Little Girl
TTITLE4=Bob Brady and The Con-Chords - Everybody's Goin' To A Love-in
TTITLE5=Levi Jackson - This Beautiful Day
TTITLE6=Frankie and The Classicals - What Shall I Do
TTITLE7=Cindy Scott - I Love You, Baby
TTITLE8=Garnet Mimms - As Long As I Have You
TTITLE9=Rufus Lumley - I'm Standing
TTITLE10=Dean Parrish - Determination
TTITLE11=Nancy Wilson - The End Of Our Love
TTITLE12=Patrice Holloway - Love And Desire
TTITLE13=Thelma Houston - Baby Mine
TTITLE14=The Soul Sisters - Good Time Tonight
TTITLE15=Jimmy Holiday and Clyde King - Ready, Willing and Able
TTITLE16=Eddie and Ernie - I Can't Do It (I Just Can't Leave You)
TTITLE17=Don Varner - Tear Stained Face
TTITLE18=Baltimore and Ohio Marching Band - Condition Red
TTITLE19=Reggie Garner - Hot Line
TTITLE20=The Group feat. Cecil Washington - I Don't Like To Lose
TTITLE21=Sheila Anthony - Livin' In Love
TTITLE22=Elbie Parker - Please Keep Away From Me
TTITLE23=The Flirtations - Change My Darkness Into Light
TTITLE24=Kenny Wells - Isn't It Just A Shame
TTITLE25=Ray Pollard - The Drifter
EXTD=
EXTT0=
EXTT1=
EXTT2=
EXTT3=
EXTT4=
EXTT5=
EXTT6=
EXTT7=
EXTT8=
EXTT9=
EXTT10=
EXTT11=
EXTT12=
EXTT13=
EXTT14=
EXTT15=
EXTT16=
EXTT17=
EXTT18=
EXTT19=
EXTT20=
EXTT21=
EXTT22=
EXTT23=
EXTT24=
EXTT25=
PLAYORDER=
